<svg xmlns="http://www.w3.org/2000/svg" width="55" height="60" viewBox="0 0 55 60">
  <g id="discord_1" data-name="discord 1" transform="translate(-2.783)">
    <path id="Vector" d="M6.45,52.99H42.1l-1.7-5.512,4.072,3.495L48.2,54.317,55,60V6.188A6.636,6.636,0,0,0,48.38,0L6.463.008A6.382,6.382,0,0,0,0,6.2V46.8a6.256,6.256,0,0,0,6.45,6.19ZM32.82,14.208l-.083.03.03-.03ZM13.743,17.38a15.423,15.423,0,0,1,8.83-3.175l.342.337c-5.607,1.337-8.15,3.843-8.15,3.843s.68-.333,1.868-.84a28.548,28.548,0,0,1,23.435,1,20.562,20.562,0,0,0-7.81-3.842l.465-.458a15.437,15.437,0,0,1,8.7,3.15,38.592,38.592,0,0,1,4.61,17.55A13.323,13.323,0,0,1,36.2,39.265s-1.18-1.335-2.02-2.5c4.075-1.17,5.6-3.51,5.6-3.51A36.791,36.791,0,0,1,36.235,35.1a23.739,23.739,0,0,1-4.57,1.338c-7.21,1.17-11.258-.788-15.083-2.34l-1.308-.665a10.035,10.035,0,0,0,5.435,3.51c-1.028,1.173-2.045,2.505-2.045,2.505-6.965-.165-9.5-4.515-9.5-4.515a38.684,38.684,0,0,1,4.583-17.55Z" transform="translate(2.783 0)" fill="#f85e11"/>
    <path id="Vector-2" data-name="Vector" d="M3.254,6.747a3.321,3.321,0,0,0,3.254-3.38A3.313,3.313,0,0,0,3.254,0V.008A3.325,3.325,0,0,0,0,3.382,3.317,3.317,0,0,0,3.254,6.747Z" transform="translate(32.791 25.212)" fill="#f85e11"/>
    <path id="Vector-3" data-name="Vector" d="M3.254,6.747a3.321,3.321,0,0,0,3.254-3.38A3.31,3.31,0,0,0,3.264,0l-.01.008A3.317,3.317,0,0,0,0,3.382,3.317,3.317,0,0,0,3.254,6.747Z" transform="translate(21.26 25.212)" fill="#f85e11"/>
  </g>
</svg>
