<svg xmlns="http://www.w3.org/2000/svg" width="63.166" height="60.535" viewBox="0 0 63.166 60.535">
  <g id="github_1" data-name="github 1" transform="translate(0 -1.391)">
    <path id="Vector" d="M31.583,0C14.133,0,0,13.9,0,31.036A31.087,31.087,0,0,0,21.595,60.482c1.579.292,2.158-.669,2.158-1.492,0-.737-.026-2.69-.039-5.277-8.785,1.871-10.638-4.164-10.638-4.164-1.437-3.582-3.514-4.54-3.514-4.54-2.861-1.924.221-1.884.221-1.884a6.607,6.607,0,0,1,4.837,3.2c2.816,4.745,7.393,3.374,9.2,2.582a6.571,6.571,0,0,1,2-4.151c-7.014-.776-14.386-3.445-14.386-15.336a11.857,11.857,0,0,1,3.25-8.327,10.859,10.859,0,0,1,.276-8.214s2.645-.832,8.685,3.182a30.282,30.282,0,0,1,15.792,0c6-4.014,8.646-3.182,8.646-3.182A11.158,11.158,0,0,1,48.4,21.09a11.905,11.905,0,0,1,3.237,8.327c0,11.923-7.383,14.547-14.41,15.31,1.105.932,2.132,2.835,2.132,5.743,0,4.153-.039,7.49-.039,8.5,0,.813.553,1.784,2.171,1.474A30.993,30.993,0,0,0,63.166,31.036C63.166,13.9,49.025,0,31.583,0Z" transform="translate(0 1.391)" fill="#f85e11"/>
  </g>
</svg>
