<svg id="instagram_1" data-name="instagram 1" xmlns="http://www.w3.org/2000/svg" width="59.524" height="59.523" viewBox="0 0 59.524 59.523">
  <path id="Vector" d="M10.463,5.232A5.232,5.232,0,1,1,5.232,0,5.232,5.232,0,0,1,10.463,5.232Z" transform="translate(24.53 24.53)" fill="#f85e11"/>
  <path id="Vector-2" data-name="Vector" d="M24.647,0H6.975A6.983,6.983,0,0,0,0,6.975V24.647a6.983,6.983,0,0,0,6.975,6.975H24.647a6.983,6.983,0,0,0,6.975-6.975V6.975A6.983,6.983,0,0,0,24.647,0ZM15.811,24.53a8.719,8.719,0,1,1,8.719-8.719A8.729,8.729,0,0,1,15.811,24.53Zm10-16.974a1.744,1.744,0,1,1,1.744-1.744A1.744,1.744,0,0,1,25.809,7.557Z" transform="translate(13.951 13.951)" fill="#f85e11"/>
  <path id="Vector-3" data-name="Vector" d="M43.829,0H15.695A15.713,15.713,0,0,0,0,15.695V43.829A15.713,15.713,0,0,0,15.695,59.524H43.829A15.713,15.713,0,0,0,59.524,43.829V15.695A15.713,15.713,0,0,0,43.829,0Zm5.232,38.6A10.475,10.475,0,0,1,38.6,49.061H20.926A10.475,10.475,0,0,1,10.463,38.6V20.926A10.475,10.475,0,0,1,20.926,10.463H38.6A10.475,10.475,0,0,1,49.061,20.926Z" fill="#f85e11"/>
</svg>
