<svg id="linkedin_1" data-name="linkedin 1" xmlns="http://www.w3.org/2000/svg" width="48.776" height="48.776" viewBox="0 0 48.776 48.776">
  <path id="Vector" d="M31.511,33.383v0h.012V15.493C31.524,6.741,29.64,0,19.409,0A10.621,10.621,0,0,0,9.843,5.258H9.7V.817H0V33.381H10.1V17.257c0-4.246.8-8.351,6.062-8.351,5.18,0,5.258,4.845,5.258,8.623V33.383Z" transform="translate(17.253 15.393)" fill="#f85e11"/>
  <path id="Vector-2" data-name="Vector" d="M0,0H10.113V32.564H0Z" transform="translate(0.805 16.212)" fill="#f85e11"/>
  <path id="Vector-3" data-name="Vector" d="M5.857,0a5.885,5.885,0,1,0,5.857,5.857A5.859,5.859,0,0,0,5.857,0Z" fill="#f85e11"/>
</svg>
