<svg xmlns="http://www.w3.org/2000/svg" width="66.771" height="36.998" viewBox="0 0 66.771 36.998">
  <g id="Group_260" data-name="Group 260" transform="translate(-458.883 553.281)">
    <path id="Union" d="M458.883-534.782a18.5,18.5,0,0,1,18.5-18.5,18.5,18.5,0,0,1,18.5,18.5,18.5,18.5,0,0,1-18.5,18.5A18.5,18.5,0,0,1,458.883-534.782Zm39.022-.073c0-9.538,4.206-17.271,9.394-17.271s9.394,7.733,9.394,17.271-4.206,17.271-9.394,17.271S497.905-525.317,497.905-534.855Zm20.812,0c0-8.82,1.553-15.97,3.469-15.97s3.469,7.15,3.469,15.97-1.552,15.971-3.469,15.971S518.717-526.035,518.717-534.855Z" fill="#f85e11"/>
  </g>
</svg>
