<svg xmlns="http://www.w3.org/2000/svg" xmlns:xlink="http://www.w3.org/1999/xlink" width="71.612" height="71.052" viewBox="0 0 71.612 71.052">
  <defs>
    <linearGradient id="linear-gradient" x1="0.5" x2="0.5" y2="1" gradientUnits="objectBoundingBox">
      <stop offset="0" stop-color="#f88311"/>
      <stop offset="1" stop-color="#f83811"/>
    </linearGradient>
  </defs>
  <g id="Layer_x0020_1" transform="translate(-1.83 -1.85)">
    <path id="Path_6972" data-name="Path 6972" d="M3.247,1.85H16.184A1.42,1.42,0,0,1,17.6,3.266V16.2a1.278,1.278,0,0,1-.014.2l6.586,6.586a.853.853,0,1,1-1.206,1.206L16.38,17.6a1.459,1.459,0,0,1-.2.014H3.247A1.42,1.42,0,0,1,1.831,16.2V3.266A1.42,1.42,0,0,1,3.247,1.85Zm70.2,39.786v-8.8a.965.965,0,0,0-.963-.963h-8.8a.965.965,0,0,0-.963.963v3.548H58.067a.853.853,0,1,0,0,1.705h4.648v3.548a.965.965,0,0,0,.963.963h8.8a.965.965,0,0,0,.963-.963ZM72.027,72.9H59.089a1.42,1.42,0,0,1-1.416-1.416V58.549a1.278,1.278,0,0,1,.014-.2L51.1,51.767a.853.853,0,1,1,1.206-1.206l6.586,6.586a1.46,1.46,0,0,1,.2-.014H72.027a1.42,1.42,0,0,1,1.416,1.416V71.486A1.42,1.42,0,0,1,72.027,72.9Zm-38.652,0h8.8a.965.965,0,0,0,.963-.963v-8.8a.965.965,0,0,0-.963-.963H38.628V57.526a.853.853,0,1,0-1.705,0v4.648H33.374a.965.965,0,0,0-.963.963v8.8a.965.965,0,0,0,.963.963Zm-30.129,0H16.183A1.42,1.42,0,0,0,17.6,71.486V58.549a1.278,1.278,0,0,0-.014-.2l6.586-6.586a.853.853,0,1,0-1.206-1.206l-6.586,6.586a1.46,1.46,0,0,0-.2-.014H3.246A1.42,1.42,0,0,0,1.83,58.549V71.486A1.42,1.42,0,0,0,3.246,72.9ZM72.027,1.85H59.089a1.42,1.42,0,0,0-1.416,1.416V16.2a1.278,1.278,0,0,0,.014.2L51.1,22.985a.853.853,0,1,0,1.206,1.206L58.894,17.6a1.459,1.459,0,0,0,.2.014H72.027A1.42,1.42,0,0,0,73.442,16.2V3.266A1.42,1.42,0,0,0,72.027,1.85ZM2.111,41.636v-8.8a.965.965,0,0,1,.963-.963h8.8a.965.965,0,0,1,.963.963v3.548h4.648a.853.853,0,1,1,0,1.705H12.838v3.548a.965.965,0,0,1-.963.963h-8.8a.965.965,0,0,1-.963-.963ZM33.376,1.85h8.8a.965.965,0,0,1,.963.963v8.8a.965.965,0,0,1-.963.963H38.629v4.648a.853.853,0,1,1-1.705,0V12.577H33.375a.965.965,0,0,1-.963-.963v-8.8a.965.965,0,0,1,.963-.963Z" fill-rule="evenodd" fill="url(#linear-gradient)"/>
    <path id="Path_6973" data-name="Path 6973" d="M212.207,174.018l12.35,7.131a2.594,2.594,0,0,1,.256.169l-13.772,7.951-13.772-7.951a2.805,2.805,0,0,1,.256-.169l12.35-7.131a2.28,2.28,0,0,1,2.332,0Zm13.5,8.844a2.557,2.557,0,0,1,.019.306v14.261a2.278,2.278,0,0,1-1.165,2.019l-12.35,7.131a2.373,2.373,0,0,1-.274.137v-15.9l13.772-7.951ZM210.15,206.714a2.67,2.67,0,0,1-.274-.137l-12.35-7.131a2.276,2.276,0,0,1-1.165-2.019V183.167a2.571,2.571,0,0,1,.019-.306l13.772,7.95v15.9Z" transform="translate(-173.265 -153.062)" fill-rule="evenodd" fill="url(#linear-gradient)"/>
  </g>
</svg>
