<svg id="Group_12664" data-name="Group 12664" xmlns="http://www.w3.org/2000/svg" xmlns:xlink="http://www.w3.org/1999/xlink" width="21524.314" height="5115.438" viewBox="0 0 21524.314 5115.438">
  <defs>
    <linearGradient id="linear-gradient" x1="0.5" x2="0.5" y2="1" gradientUnits="objectBoundingBox">
      <stop offset="0" stop-color="#f88311"/>
      <stop offset="1" stop-color="#f83811"/>
    </linearGradient>
  </defs>
  <path id="Path_7124" data-name="Path 7124" d="M2681.81,5.864V1780.786q0,635.522-338.188,951.013T1342.675,3047.291q-658.219,0-998.677-315.491T3.54,1780.786V5.864H788.863V1794.4q0,322.3,138.453,481.181t415.359,158.88q281.445,0,419.9-158.88T1901.026,1794.4V5.864ZM4456.73-39.53q417.628,0,737.66,129.374t556.081,379.044L5373.7,972.766Q5178.5,768.491,4953.8,666.353T4443.112,564.216q-167.959,0-272.366,36.315t-149.8,99.868q-45.4,63.552-45.394,145.262,0,95.328,88.519,161.15t288.255,111.216L4856.2,1231.514q449.4,104.407,658.218,304.143t208.815,531.115q0,317.761-163.42,537.924t-449.4,331.379q-285.984,111.216-653.68,111.216-299.6,0-571.97-65.822T3394.5,2793.082q-217.893-122.565-367.694-281.445L3403.58,1989.6q113.486,131.644,279.176,233.781t363.155,161.15a1395.845,1395.845,0,0,0,401.741,59.013q158.879,0,265.557-31.776t156.611-95.328q49.934-63.553,49.935-149.8,0-95.328-68.093-161.15t-258.748-111.216L4039.1,1771.707q-254.209-59.012-451.675-156.61t-310.951-263.288Q3162.99,1186.12,3162.99,936.45q0-281.446,154.341-501.609T3762.2,87.574Q4052.72-39.53,4456.73-39.53ZM7484.538,5.864q703.614,0,1078.117,390.392t374.5,1107.624q0,717.232-374.5,1107.624T7484.538,3001.9H6213.494V5.864Zm-77.171,2405.9q381.313,0,556.082-229.242t174.768-678.646q0-449.4-174.768-678.647T7407.367,595.992H6994.277V2411.769ZM9050.644,3001.9,10103.794,5.864h935.123L12087.529,3001.9h-803.482l-585.586-1924.724-131.644-472.1h-9.079l-122.566,467.562L9835.967,3001.9ZM9736.1,2325.519V1794.4h1665.975v531.115ZM13671.794-39.53q453.943,0,783.053,183.847T14961,673.163q177.04,345,177.038,830.718T14961,2334.6q-177.04,345-506.148,528.845t-783.053,183.848q-453.946,0-785.324-183.848T12378.053,2334.6q-177.038-345-177.038-830.718t177.038-830.718q177.04-345,508.417-528.845T13671.794-39.53Zm0,612.825q-217.894,0-367.694,104.407t-226.973,310.952q-77.169,206.545-77.17,515.227,0,304.143,77.17,512.957t226.973,313.222q149.8,104.407,367.694,104.407t365.425-104.407q147.532-104.407,224.7-313.222t77.173-512.957q0-308.682-77.173-515.227t-224.7-310.952Q13889.687,573.295,13671.794,573.295Z" transform="translate(6386.281 1133.086)" fill="#2e2e2e"/>
  <g id="Group_12655" data-name="Group 12655" transform="translate(0 0)">
    <path id="Path_7116" data-name="Path 7116" d="M2215.048,0,3322.571,639.434l1107.513,639.422V3836.569L3322.571,4476,2215.048,5115.438,1107.512,4476,0,3836.569V1278.856L1107.512,639.434Z" fill-rule="evenodd" fill="url(#linear-gradient)"/>
    <path id="Path_7117" data-name="Path 7117" d="M1495.523,2342.977V1781.821l-346.468-346.454v907.609c0,486.749,398.245,884.993,885.021,884.993,486.749,0,885-398.244,885-884.993V1608.594a173.237,173.237,0,0,0-346.475,0v734.382c0,295.513-243.019,538.539-538.553,538.539-295.506,0-538.552-243.012-538.552-538.539Z" transform="translate(180.972 226.049)" fill="#fff" fill-rule="evenodd"/>
  </g>
</svg>
