<svg xmlns="http://www.w3.org/2000/svg" width="182.397" height="49.541" viewBox="0 0 182.397 49.541">
  <g id="Group_12577" data-name="Group 12577" transform="translate(-73.603 -105)">
    <g id="Group_12662" data-name="Group 12662" transform="translate(11037.604 1368.5)">
      <path id="Path_7116" data-name="Path 7116" d="M19.071,0l9.535,5.505,9.535,5.505V33.031l-9.535,5.505-9.535,5.505L9.535,38.536,0,33.031V11.01L9.535,5.505Z" transform="translate(-10964 -1258)" fill="#f85e11" fill-rule="evenodd"/>
      <path id="Path_7117" data-name="Path 7117" d="M1152.043,1443.174v-4.831l-2.983-2.983v7.814a7.62,7.62,0,0,0,15.239,0v-6.323a1.491,1.491,0,0,0-2.983,0v6.323a4.637,4.637,0,0,1-9.273,0Z" transform="translate(-12101.609 -2679.056)" fill="#fff" fill-rule="evenodd"/>
    </g>
    <text id="USDAO" transform="translate(134 145)" fill="#fff" font-size="37" font-family="SegoeUI, Segoe UI"><tspan x="0" y="0">USDAO</tspan></text>
  </g>
</svg>
