<svg id="Layer_x0020_1" xmlns="http://www.w3.org/2000/svg" xmlns:xlink="http://www.w3.org/1999/xlink" width="71.612" height="71.612" viewBox="0 0 71.612 71.612">
  <defs>
    <linearGradient id="linear-gradient" x1="0.5" x2="0.5" y2="1" gradientUnits="objectBoundingBox">
      <stop offset="0" stop-color="#f88311"/>
      <stop offset="1" stop-color="#f83811"/>
    </linearGradient>
  </defs>
  <g id="_1832848064064" transform="translate(0 0)">
    <path id="Path_6962" data-name="Path 6962" d="M0,1222.219c0,1.463,1,2.109,2.512,2.1l13.992-.005c-.148-.636-.683-1.846-.942-3.254a21.036,21.036,0,0,1-.457-3.879v-14.966a6.261,6.261,0,0,1,2.906-4.927c1.118-.7,6.874-2.519,8.662-3.227.5-.2,1-.347,1.458-.5.575-.19,1.01-.387,1.536-.562,8.226-2.739,5.042-2.361,15.073.979l7.307,2.624a6.139,6.139,0,0,1,1.466.632,6.3,6.3,0,0,1,2.993,4.98v14.966a23.878,23.878,0,0,1-1.1,6.311,6.47,6.47,0,0,0-.3.822l13.85,0c1.613.011,2.654-.543,2.654-2.1v-42.24H0v42.24Z" transform="translate(0 -1163.335)" fill-rule="evenodd" fill="url(#linear-gradient)"/>
    <path id="Path_6963" data-name="Path 6963" d="M1374.8,2294.917c-1.328,0-2.3-1.394-3.042-2.133-.709-.709-3.28-2.624-1.6-4.469a2.915,2.915,0,0,1,1.427-.671c1.455,0,2.281,1.611,3.217,2.238l4.021-3.952c2.145-2.181,3.952-.178,3.952,1.015,0,1.092-.917,1.826-1.5,2.413l-3.986,3.987c-.674.674-1.206,1.573-2.483,1.573Zm-16.365-17.763v13.287a19.009,19.009,0,0,0,3.875,11.651,17.67,17.67,0,0,0,3.257,3.316c2.446,1.909,6.394,3.915,9.512,3.915,2.6,0,6.23-1.627,8.141-2.908a19.029,19.029,0,0,0,8.5-15.974v-13.287c0-1.977-1.618-2.292-3.1-2.779-1.5-.494-2.929-1.07-4.441-1.573-1.454-.484-2.9-1.051-4.441-1.573-6.016-2.044-3.4-1.946-9.229-.036l-8.881,3.147c-1.514.5-3.2.822-3.2,2.814Z" transform="translate(-1339.279 -2237.711)" fill-rule="evenodd" fill="url(#linear-gradient)"/>
    <path id="Path_6964" data-name="Path 6964" d="M63.081,6.444a2.193,2.193,0,0,1,1.985-2.2,2.068,2.068,0,0,1,.226,4.128,2,2,0,0,1-1.486-.551,2.513,2.513,0,0,1-.725-1.373Zm-8.392,0a2.192,2.192,0,0,1,1.985-2.2,2.106,2.106,0,0,1,2.177,1.951A2.106,2.106,0,0,1,56.9,8.368a2.181,2.181,0,0,1-2.211-1.924Zm-8.392,0a2.193,2.193,0,0,1,1.985-2.2,2.106,2.106,0,0,1,2.177,1.951,2.086,2.086,0,0,1-4.162.253ZM0,1.828V12.6H71.613V1.828A2.045,2.045,0,0,0,69.794.01H1.819A2.045,2.045,0,0,0,0,1.828Z" transform="translate(0 -0.01)" fill-rule="evenodd" fill="url(#linear-gradient)"/>
  </g>
</svg>
